<svg viewBox="0 0 16 16" xmlns="http://www.w3.org/2000/svg"><path fill="white" d="m14.341 5.579c-.347-.473-.831-1.027-1.362-1.558s-1.085-1.015-1.558-1.362c-.806-.591-1.197-.659-1.421-.659h-5.75c-.689 0-1.25.561-1.25 1.25v11.5c0 .689.561 1.25 1.25 1.25h9.5c.689 0 1.25-.561 1.25-1.25v-7.75c0-.224-.068-.615-.659-1.421zm-2.07-.85c.48.48.856.912 1.134 1.271h-2.406v-2.405c.359.278.792.654 1.271 1.134zm1.729 10.021c0 .136-.114.25-.25.25h-9.5c-.136 0-.25-.114-.25-.25v-11.5c0-.135.114-.25.25-.25h5.75v3.5c0 .276.224.5.5.5h3.5z"/><path fill="white" d="m9.421.659c-.806-.591-1.197-.659-1.421-.659h-5.75c-.689 0-1.25.561-1.25 1.25v11.5c0 .604.43 1.109 1 1.225v-12.725c0-.135.115-.25.25-.25h7.607c-.151-.124-.297-.238-.437-.341z"/></svg>